<svg width="114" height="147" xmlns="http://www.w3.org/2000/svg">
    <g id="predator-logo-group">
        <path fill="rgb(27,25,24)" d="m111.96197,1.48022l0,82.20578l-23.54437,23.54437l0,-21.15003l7.58209,-7.58208l0,-20.35192l-12.37078,19.5538l0,68.23878l-11.1736,-28.33306l-12.76983,-12.76983l0,-86.19635l14.36606,40.30477l23.94343,-24.34248l13.967,-33.12175zm-110.53884,0l0,82.20578l23.54438,23.54437l0,-21.15003l-7.58209,-7.18303l0,-20.35191l12.37077,19.15474l0,68.23878l11.17361,-28.33306l12.76983,-12.76983l0,-86.19635l-14.36606,39.90572l-23.94343,-24.34249l-13.96701,-32.72269z"/>
        <path fill="rgb(0,174,205)" d="m111.96197,1.48022l0,82.20578l-23.54437,23.54437l0,-21.15003l7.58209,-7.58208l0,-20.35192l-12.37078,19.5538l0,68.23878l-11.1736,-28.33306l-12.76983,-12.76983l0,-86.19635l14.36606,40.30477l23.94343,-24.34248l13.967,-33.12175zm-110.53884,0l0,82.20578l23.54438,23.54437l0,-21.15003l-7.58209,-7.18303l0,-20.35191l12.37077,19.15474l0,68.23878l11.17361,-28.33306l12.76983,-12.76983l0,-86.19635l-14.36606,39.90572l-23.94343,-24.34249l-13.96701,-32.72269z" style="animation:anim 2000ms ease-out 0ms infinite"/>
    </g>
    <style>
        @keyframes anim{0%,to{fill-opacity:0}50%{fill-opacity:1}}
    </style>
</svg>
